<svg version="1.1" id="Layer_1" xmlns="http://www.w3.org/2000/svg" xmlns:xlink="http://www.w3.org/1999/xlink" x="0px" y="0px"
	 width="100%" viewBox="0 0 1254 1254" enable-background="new 0 0 1254 1254" xml:space="preserve">
<!-- Light badge plate baked in: the mark is full-color (cream face, navy ears) and
     needs a pale ground to read. One self-contained asset then renders correctly on
     every surface — the indigo auth hero, the dark mobile header, the browser-tab
     favicon, the dark share card — with no per-theme or OS-media-query logic. rx ~22%
     of the canvas matches the app-icon corner radius. The id is a contract: the light
     share card strips this rect by it (capture-tile.ts), since a pale plate on a pale
     card reads as a stray tile. Keep the id if this element is ever rewritten. -->
<rect id="badge-plate" x="0" y="0" width="1254" height="1254" rx="276" ry="276" fill="#F5F5F8"/>

<path fill="#F8EBD9" opacity="1.000000" stroke="none" 
	d="
M1010.366211,543.760864 
	C1010.219360,544.288269 1009.771790,545.006958 1009.968384,545.315796 
	C1030.022949,576.830566 1050.485474,608.093262 1070.066162,639.898865 
	C1079.088257,654.553833 1081.311279,671.135803 1079.459839,688.355408 
	C1077.784790,703.934998 1070.005859,716.906128 1062.857056,730.194641 
	C1055.218262,744.394104 1047.376709,758.484253 1039.684692,772.655334 
	C1022.473938,804.363220 1005.284485,836.082703 988.131348,867.821777 
	C985.677368,872.362305 983.656677,877.141602 981.118408,881.631104 
	C973.581665,894.961426 962.489990,904.867249 949.970032,913.326599 
	C949.332397,913.757446 948.408020,913.763855 947.320068,913.612854 
	C955.532349,899.905334 957.951965,885.545532 952.028687,870.788635 
	C940.988281,843.283569 929.637024,815.889282 917.710022,788.758911 
	C909.334778,769.707520 896.136108,754.056213 878.026550,743.681152 
	C839.736816,721.744507 801.109314,700.389587 762.413635,679.173035 
	C745.773071,670.049072 725.625427,673.755615 712.265381,687.029419 
	C692.294312,706.871582 672.207703,726.598022 652.081238,746.282654 
	C642.519775,755.634338 637.686462,766.855469 637.708740,780.219971 
	C637.742676,800.544922 637.764771,820.870056 637.727112,841.195007 
	C637.697144,857.378357 643.702454,871.037109 654.955994,882.455139 
	C694.714172,922.794678 734.769470,962.846069 774.146729,1003.553711 
	C786.199219,1016.013367 799.690796,1023.451843 816.981934,1023.907288 
	C808.691772,1031.256104 798.519287,1034.580078 788.027588,1036.841919 
	C783.089233,1037.906494 777.872742,1037.883179 772.775879,1037.966553 
	C763.416809,1038.119751 754.053040,1037.986694 744.478882,1037.662842 
	C749.065735,1033.624146 754.540649,1030.494385 758.501831,1026.023560 
	C764.091919,1019.714233 763.031250,1011.943909 757.053711,1005.910156 
	C727.862610,976.444092 698.607605,947.040955 669.498474,917.494202 
	C646.134460,893.778870 610.431763,893.571472 586.916382,917.278564 
	C557.706665,946.726501 528.546448,976.223633 499.361847,1005.696472 
	C492.877136,1012.245178 492.149628,1020.114746 498.256317,1027.076172 
	C501.580627,1030.865723 506.078918,1033.625488 510.047699,1036.849731 
	C507.733490,1037.501343 505.417816,1038.711548 503.105377,1038.705444 
	C494.335022,1038.682251 485.537109,1038.619507 476.802704,1037.913330 
	C463.421722,1036.831787 451.031738,1032.613281 440.449463,1024.126465 
	C454.549164,1023.446533 466.887695,1019.080872 476.549194,1009.324036 
	C518.524414,966.934448 560.296326,924.343018 602.021790,881.707214 
	C612.460205,871.041077 618.054443,858.003113 618.197510,843.014404 
	C618.404297,821.351685 618.398560,799.683533 618.154846,778.021362 
	C618.024170,766.406189 613.750183,756.070740 605.549500,747.878357 
	C585.037354,727.387146 564.238770,707.182617 543.542480,686.875916 
	C529.361694,672.962158 509.941437,670.313965 492.563812,679.945801 
	C456.282318,700.055359 420.035767,720.228149 383.729950,740.293640 
	C367.471863,749.279297 354.180084,761.424744 344.714935,777.392151 
	C340.148407,785.095764 336.260468,793.261780 332.713867,801.497742 
	C324.083038,821.540405 316.355743,841.986450 307.274261,861.816528 
	C298.795929,880.329590 298.946747,897.792419 309.925446,915.029907 
	C306.182220,912.727417 302.243744,910.687439 298.731171,908.074768 
	C286.635681,899.077881 278.020752,887.316345 271.033173,873.999329 
	C257.366486,847.953064 243.156494,822.191833 229.177261,796.309448 
	C220.090454,779.485352 211.038956,762.642212 201.923782,745.833496 
	C196.298080,735.459534 190.384109,725.237244 184.950821,714.764648 
	C175.360977,696.280396 173.452774,676.991028 179.092056,656.835205 
	C182.752792,643.751038 190.350754,632.804016 197.341919,621.545166 
	C211.359985,598.969666 225.706253,576.597900 239.923645,554.146301 
	C242.016464,550.841370 244.145554,547.559326 246.250015,543.810425 
	C249.377151,540.456177 253.120132,537.994019 255.556305,534.595154 
	C294.356964,480.461060 332.967560,426.190826 371.669342,371.985718 
	C400.972260,330.944489 430.342804,289.951508 459.683289,248.937042 
	C467.507050,245.890503 475.211426,242.465530 483.201141,239.945206 
	C487.691956,238.528610 492.653442,238.093201 497.404022,238.087112 
	C580.343079,237.980881 663.282837,238.160889 746.221130,237.885590 
	C763.444519,237.828415 780.019043,239.374741 795.960815,248.171631 
	C801.387207,255.206100 806.136414,262.036530 810.972656,268.804688 
	C873.780151,356.701141 936.573547,444.607697 999.497620,532.420593 
	C1002.516541,536.633423 1006.716370,540.000122 1010.366211,543.760864 
M465.800842,562.711243 
	C443.929749,539.863831 417.561371,532.058594 387.504395,541.885986 
	C357.640930,551.650085 340.914948,573.590149 336.666870,604.513000 
	C332.081360,637.892151 352.866882,670.891663 385.180389,682.823547 
	C416.983368,694.566895 453.359802,682.703735 471.929718,654.532715 
	C490.955566,625.669983 488.816010,591.267578 465.800842,562.711243 
M911.403931,578.127625 
	C891.719055,542.142334 850.364197,527.994263 814.313843,544.911865 
	C780.865967,560.608154 763.440002,600.098755 774.706360,634.670044 
	C786.790283,671.750183 822.608948,693.348450 859.904907,685.993408 
	C906.174866,676.868530 935.184570,625.234802 911.403931,578.127625 
M666.508057,714.008362 
	C677.811646,702.694214 689.281494,691.538574 700.315552,679.967407 
	C703.549561,676.575989 706.366638,672.305054 707.973633,667.923401 
	C717.552307,641.805786 696.805969,612.699097 667.826660,612.097168 
	C641.346680,611.547180 614.838684,611.597534 588.357483,612.119507 
	C570.948975,612.462585 557.994446,621.222046 549.875610,636.597961 
	C542.687317,650.211670 545.054871,669.384827 554.837585,679.168762 
	C569.208252,693.541321 584.034119,707.479858 597.975037,722.255249 
	C612.837769,738.007690 643.818176,739.036316 658.609680,721.949158 
	C660.893555,719.310669 663.527344,716.975159 666.508057,714.008362 
M626.532532,379.031372 
	C631.493286,379.347656 636.497681,379.352509 641.406189,380.041290 
	C653.839966,381.786194 666.435120,382.994812 678.595825,385.943359 
	C703.560669,391.996338 726.385437,402.988281 747.078857,418.348846 
	C753.612732,423.198883 763.364014,421.285034 768.047729,415.052917 
	C773.187561,408.213745 769.814087,398.451508 764.302795,394.417908 
	C728.145447,367.955292 687.756775,352.770966 643.214172,349.192719 
	C624.834473,347.716217 606.307068,348.712677 588.132874,352.234253 
	C553.547607,358.935913 521.973999,372.798706 493.374756,393.383575 
	C487.625580,397.521729 484.739899,403.006012 486.235229,410.212494 
	C487.856812,418.027527 498.943298,425.053528 509.517761,418.194519 
	C521.044373,410.717957 532.916077,403.612213 545.226501,397.539215 
	C570.459473,385.091248 597.587952,380.016205 626.532532,379.031372 
M545.368896,462.843201 
	C541.129395,465.761902 536.805908,468.567108 532.670898,471.626862 
	C527.025696,475.804077 524.978088,484.103302 527.955750,489.887695 
	C531.327332,496.437286 539.178589,499.771881 546.197327,496.972382 
	C549.975342,495.465393 553.280090,492.771454 556.797363,490.611389 
	C573.836548,480.147034 591.995422,472.851776 612.063538,470.775177 
	C629.381165,468.983154 646.535217,469.435425 663.367920,474.276489 
	C679.007019,478.774261 693.347168,485.937866 706.671570,495.315399 
	C713.605347,500.195251 722.544739,498.454773 727.000488,492.025299 
	C731.372742,485.716248 730.054565,476.101593 723.851624,471.557922 
	C690.183899,446.896637 652.491943,436.013458 610.956665,440.212097 
	C587.742981,442.558655 566.021851,450.291473 545.368896,462.843201 
z"/>
<path fill="#52597A" opacity="1.000000" stroke="none" 
	d="
M310.191772,915.229614 
	C298.946747,897.792419 298.795929,880.329590 307.274261,861.816528 
	C316.355743,841.986450 324.083038,821.540405 332.713867,801.497742 
	C336.260468,793.261780 340.148407,785.095764 344.714935,777.392151 
	C354.180084,761.424744 367.471863,749.279297 383.729950,740.293640 
	C420.035767,720.228149 456.282318,700.055359 492.563812,679.945801 
	C509.941437,670.313965 529.361694,672.962158 543.542480,686.875916 
	C564.238770,707.182617 585.037354,727.387146 605.549500,747.878357 
	C613.750183,756.070740 618.024170,766.406189 618.154846,778.021362 
	C618.398560,799.683533 618.404297,821.351685 618.197510,843.014404 
	C618.054443,858.003113 612.460205,871.041077 602.021790,881.707214 
	C560.296326,924.343018 518.524414,966.934448 476.549194,1009.324036 
	C466.887695,1019.080872 454.549164,1023.446533 440.400085,1023.774292 
	C425.817474,1023.283936 413.277924,1018.050293 403.308411,1008.303711 
	C373.192261,978.861328 343.530609,948.953918 313.709015,919.210571 
	C312.535553,918.040283 311.537750,916.693787 310.191772,915.229614 
z"/>
<path fill="#52597A" opacity="1.000000" stroke="none" 
	d="
M817.407471,1023.895264 
	C799.690796,1023.451843 786.199219,1016.013367 774.146729,1003.553711 
	C734.769470,962.846069 694.714172,922.794678 654.955994,882.455139 
	C643.702454,871.037109 637.697144,857.378357 637.727112,841.195007 
	C637.764771,820.870056 637.742676,800.544922 637.708740,780.219971 
	C637.686462,766.855469 642.519775,755.634338 652.081238,746.282654 
	C672.207703,726.598022 692.294312,706.871582 712.265381,687.029419 
	C725.625427,673.755615 745.773071,670.049072 762.413635,679.173035 
	C801.109314,700.389587 839.736816,721.744507 878.026550,743.681152 
	C896.136108,754.056213 909.334778,769.707520 917.710022,788.758911 
	C929.637024,815.889282 940.988281,843.283569 952.028687,870.788635 
	C957.951965,885.545532 955.532349,899.905334 946.942932,913.602600 
	C925.158630,935.972656 903.466797,958.010132 881.744141,980.017273 
	C872.512939,989.369385 863.327820,998.771240 853.920715,1007.944275 
	C843.916199,1017.699829 831.544373,1022.376892 817.407471,1023.895264 
z"/>
<path fill="#172646" opacity="1.000000" stroke="none" 
	d="
M1010.722351,543.827209 
	C1006.716370,540.000122 1002.516541,536.633423 999.497620,532.420593 
	C936.573547,444.607697 873.780151,356.701141 810.972656,268.804688 
	C806.136414,262.036530 801.387207,255.206100 796.324951,248.210358 
	C794.016968,237.523544 795.616699,234.345917 804.972046,229.054199 
	C820.610962,220.208298 836.094299,211.085541 851.781555,202.327332 
	C881.416260,185.782288 910.805054,186.686615 939.193420,205.062561 
	C986.860168,235.917419 1034.200928,267.275391 1081.768677,298.283783 
	C1111.319946,317.547516 1124.878052,354.452057 1114.921509,388.403900 
	C1103.403198,427.681946 1092.065796,467.014008 1080.864746,506.383759 
	C1073.322021,532.894775 1046.865479,551.321655 1021.538696,547.118591 
	C1017.971802,546.526672 1014.561340,544.991882 1010.722351,543.827209 
z"/>
<path fill="#172646" opacity="1.000000" stroke="none" 
	d="
M459.816284,248.539993 
	C430.342804,289.951508 400.972260,330.944489 371.669342,371.985718 
	C332.967560,426.190826 294.356964,480.461060 255.556305,534.595154 
	C253.120132,537.994019 249.377151,540.456177 246.033234,543.621460 
	C218.261200,556.495728 184.681168,537.294434 176.021652,507.914612 
	C163.981476,467.064819 152.211609,426.134033 140.572983,385.167725 
	C131.567307,353.469055 146.519424,316.965454 174.439453,298.950623 
	C222.281219,268.081635 269.707581,236.569611 317.430573,205.515366 
	C345.352814,187.345856 374.472168,185.448639 403.966614,201.291336 
	C421.398560,210.654770 438.263214,221.077728 455.337463,231.101685 
	C461.290314,234.596466 462.760834,240.387741 459.816284,248.539993 
z"/>
<path fill="#233150" opacity="1.000000" stroke="none" 
	d="
M510.425842,1036.910156 
	C506.078918,1033.625488 501.580627,1030.865723 498.256317,1027.076172 
	C492.149628,1020.114746 492.877136,1012.245178 499.361847,1005.696472 
	C528.546448,976.223633 557.706665,946.726501 586.916382,917.278564 
	C610.431763,893.571472 646.134460,893.778870 669.498474,917.494202 
	C698.607605,947.040955 727.862610,976.444092 757.053711,1005.910156 
	C763.031250,1011.943909 764.091919,1019.714233 758.501831,1026.023560 
	C754.540649,1030.494385 749.065735,1033.624146 744.039307,1037.615112 
	C739.490112,1038.631348 735.168213,1039.385010 730.127991,1039.751465 
	C724.967896,1039.237915 720.522339,1038.940186 716.085388,1039.036011 
	C712.053284,1039.123047 708.030518,1039.638184 704.003601,1039.964600 
	C700.302429,1040.034302 696.601196,1040.103882 692.225464,1039.796143 
	C690.034180,1039.603027 688.517517,1039.787354 687.000854,1039.971680 
	C677.369629,1040.045532 667.738403,1040.178955 658.107178,1040.182739 
	C623.374451,1040.196533 588.641663,1040.166626 553.158447,1039.756836 
	C547.941589,1039.555542 543.475281,1039.750488 539.008911,1039.945435 
	C538.249146,1040.011230 537.489319,1040.076904 536.079285,1039.755127 
	C532.292603,1039.553101 529.156128,1039.738525 526.019714,1039.923950 
	C520.947815,1038.939453 515.875854,1037.954956 510.425842,1036.910156 
z"/>
<path fill="#0C0B3D" opacity="1.000000" stroke="none" 
	d="
M704.467651,1040.035400 
	C708.030518,1039.638184 712.053284,1039.123047 716.085388,1039.036011 
	C720.522339,1038.940186 724.967896,1039.237915 729.700195,1039.664551 
	C721.637695,1040.011841 713.284668,1040.059082 704.467651,1040.035400 
z"/>
<path fill="#0C0B3D" opacity="1.000000" stroke="none" 
	d="
M539.468628,1040.015259 
	C543.475281,1039.750488 547.941589,1039.555542 552.698792,1039.655029 
	C548.635864,1039.994751 544.282166,1040.039917 539.468628,1040.015259 
z"/>
<path fill="#0C0B3D" opacity="1.000000" stroke="none" 
	d="
M526.466797,1040.000732 
	C529.156128,1039.738525 532.292603,1039.553101 535.708069,1039.655518 
	C532.962708,1039.988159 529.938293,1040.032959 526.466797,1040.000732 
z"/>
<path fill="#0C0B3D" opacity="1.000000" stroke="none" 
	d="
M687.413269,1040.042480 
	C688.517517,1039.787354 690.034180,1039.603027 691.773926,1039.694580 
	C690.606628,1040.018066 689.216125,1040.065796 687.413269,1040.042480 
z"/>
<path fill="#101F3F" opacity="1.000000" stroke="none" 
	d="
M466.027039,562.984924 
	C488.816010,591.267578 490.955566,625.669983 471.929718,654.532715 
	C453.359802,682.703735 416.983368,694.566895 385.180389,682.823547 
	C352.866882,670.891663 332.081360,637.892151 336.666870,604.513000 
	C340.914948,573.590149 357.640930,551.650085 387.504395,541.885986 
	C417.561371,532.058594 443.929749,539.863831 466.027039,562.984924 
M381.517670,612.633179 
	C384.457672,614.239868 387.273468,616.854126 390.364563,617.235168 
	C396.084137,617.940308 401.973785,617.518188 407.776031,617.231018 
	C413.773956,616.934143 417.944183,612.480103 418.028748,606.561829 
	C418.109436,600.915283 418.087738,595.264465 417.967529,589.618591 
	C417.823212,582.841248 413.485687,578.424805 406.719421,578.273865 
	C401.241180,578.151550 395.755676,578.267639 390.274933,578.364807 
	C385.172882,578.455261 380.744385,581.171509 380.406891,585.842407 
	C379.782379,594.485107 380.774109,603.244507 381.517670,612.633179 
z"/>
<path fill="#101F3F" opacity="1.000000" stroke="none" 
	d="
M911.590454,578.449951 
	C935.184570,625.234802 906.174866,676.868530 859.904907,685.993408 
	C822.608948,693.348450 786.790283,671.750183 774.706360,634.670044 
	C763.440002,600.098755 780.865967,560.608154 814.313843,544.911865 
	C850.364197,527.994263 891.719055,542.142334 911.590454,578.449951 
M826.231934,617.400574 
	C831.882629,617.367920 837.537964,617.466309 843.182861,617.267883 
	C849.542847,617.044495 853.789124,612.787415 853.930786,606.529175 
	C854.062378,600.715210 854.071594,594.891113 853.887451,589.079346 
	C853.690308,582.858276 849.304688,578.489441 843.104126,578.309326 
	C837.624207,578.150085 832.132935,578.180603 826.651733,578.322510 
	C819.975647,578.495300 815.766968,582.554504 815.533691,589.234924 
	C815.336670,594.877625 815.400574,600.540222 815.616577,606.183777 
	C815.873352,612.890015 818.528748,615.773926 826.231934,617.400574 
z"/>
<path fill="#101F3F" opacity="1.000000" stroke="none" 
	d="
M666.253662,714.253906 
	C663.527344,716.975159 660.893555,719.310669 658.609680,721.949158 
	C643.818176,739.036316 612.837769,738.007690 597.975037,722.255249 
	C584.034119,707.479858 569.208252,693.541321 554.837585,679.168762 
	C545.054871,669.384827 542.687317,650.211670 549.875610,636.597961 
	C557.994446,621.222046 570.948975,612.462585 588.357483,612.119507 
	C614.838684,611.597534 641.346680,611.547180 667.826660,612.097168 
	C696.805969,612.699097 717.552307,641.805786 707.973633,667.923401 
	C706.366638,672.305054 703.549561,676.575989 700.315552,679.967407 
	C689.281494,691.538574 677.811646,702.694214 666.253662,714.253906 
z"/>
<path fill="#DDC8B3" opacity="1.000000" stroke="none" 
	d="
M626.048157,379.031616 
	C597.587952,380.016205 570.459473,385.091248 545.226501,397.539215 
	C532.916077,403.612213 521.044373,410.717957 509.517761,418.194519 
	C498.943298,425.053528 487.856812,418.027527 486.235229,410.212494 
	C484.739899,403.006012 487.625580,397.521729 493.374756,393.383575 
	C521.973999,372.798706 553.547607,358.935913 588.132874,352.234253 
	C606.307068,348.712677 624.834473,347.716217 643.214172,349.192719 
	C687.756775,352.770966 728.145447,367.955292 764.302795,394.417908 
	C769.814087,398.451508 773.187561,408.213745 768.047729,415.052917 
	C763.364014,421.285034 753.612732,423.198883 747.078857,418.348846 
	C726.385437,402.988281 703.560669,391.996338 678.595825,385.943359 
	C666.435120,382.994812 653.839966,381.786194 641.406189,380.041290 
	C636.497681,379.352509 631.493286,379.347656 626.048157,379.031616 
z"/>
<path fill="#DCC8B3" opacity="1.000000" stroke="none" 
	d="
M545.690063,462.669250 
	C566.021851,450.291473 587.742981,442.558655 610.956665,440.212097 
	C652.491943,436.013458 690.183899,446.896637 723.851624,471.557922 
	C730.054565,476.101593 731.372742,485.716248 727.000488,492.025299 
	C722.544739,498.454773 713.605347,500.195251 706.671570,495.315399 
	C693.347168,485.937866 679.007019,478.774261 663.367920,474.276489 
	C646.535217,469.435425 629.381165,468.983154 612.063538,470.775177 
	C591.995422,472.851776 573.836548,480.147034 556.797363,490.611389 
	C553.280090,492.771454 549.975342,495.465393 546.197327,496.972382 
	C539.178589,499.771881 531.327332,496.437286 527.955750,489.887695 
	C524.978088,484.103302 527.025696,475.804077 532.670898,471.626862 
	C536.805908,468.567108 541.129395,465.761902 545.690063,462.669250 
z"/>
<path fill="#FAFAFB" opacity="1.000000" stroke="none" 
	d="
M381.305176,612.294250 
	C380.774109,603.244507 379.782379,594.485107 380.406891,585.842407 
	C380.744385,581.171509 385.172882,578.455261 390.274933,578.364807 
	C395.755676,578.267639 401.241180,578.151550 406.719421,578.273865 
	C413.485687,578.424805 417.823212,582.841248 417.967529,589.618591 
	C418.087738,595.264465 418.109436,600.915283 418.028748,606.561829 
	C417.944183,612.480103 413.773956,616.934143 407.776031,617.231018 
	C401.973785,617.518188 396.084137,617.940308 390.364563,617.235168 
	C387.273468,616.854126 384.457672,614.239868 381.305176,612.294250 
z"/>
<path fill="#F9F9FA" opacity="1.000000" stroke="none" 
	d="
M825.808594,617.388550 
	C818.528748,615.773926 815.873352,612.890015 815.616577,606.183777 
	C815.400574,600.540222 815.336670,594.877625 815.533691,589.234924 
	C815.766968,582.554504 819.975647,578.495300 826.651733,578.322510 
	C832.132935,578.180603 837.624207,578.150085 843.104126,578.309326 
	C849.304688,578.489441 853.690308,582.858276 853.887451,589.079346 
	C854.071594,594.891113 854.062378,600.715210 853.930786,606.529175 
	C853.789124,612.787415 849.542847,617.044495 843.182861,617.267883 
	C837.537964,617.466309 831.882629,617.367920 825.808594,617.388550 
z"/>
</svg>